<mxfile host="app.diagrams.net" modified="2023-04-25T03:03:35.348Z" agent="Mozilla/5.0 (Windows NT 10.0; Win64; x64) AppleWebKit/537.36 (KHTML, like Gecko) Chrome/112.0.0.0 Safari/537.36" version="21.1.5" etag="fPh5PR3t7kt8NMfu-VcV" type="github">
  <diagram name="第 1 页" id="aNqkUnreRmNKx9mvbQpZ">
    <mxGraphModel>
      <root>
        <mxCell id="0" />
        <mxCell id="1" parent="0" />
      </root>
    </mxGraphModel>
  </diagram>
</mxfile>
